<svg version="1.1" xmlns="http://www.w3.org/2000/svg" x="0" y="0" viewBox="0 0 46 46" xml:space="preserve">
	<style>.st0 {fill: #fff}</style>
	<path class="st0"
		d="M19.7 21.4c-1.1 0-1.9 1-1.9 2.1s.9 2.1 1.9 2.1c1.1 0 1.9-1 1.9-2.1-.1-1.2-.9-2.1-1.9-2.1zm6.8 0c-1.1 0-1.9 1-1.9 2.1s.9 2.1 1.9 2.1c1.1 0 1.9-1 1.9-2.1s-.9-2.1-1.9-2.1z" />
	<path class="st0"
		d="M35.5 5.7h-25c-2.1 0-3.8 1.7-3.8 3.8v25.1c0 2.1 1.7 3.8 3.8 3.8h21.1l-1-3.5 2.3 2.2 2.2 2.1 4 3.6V9.6c.2-2.1-1.5-3.9-3.6-3.9zm-7.2 24.4s-.6-.7-1.2-1.5c2.5-.7 3.3-2.2 3.3-2.2-.7.5-1.5.9-2.1 1.1-1 .4-1.9.6-2.7.7-1.7.4-3.5.2-4.8 0-1.1-.2-2-.5-2.7-.7-.4-.1-.9-.4-1.4-.6 0 0-.1 0-.1-.1h-.1c-.4-.2-.5-.4-.5-.4s.9 1.5 3.2 2.2c-.6.7-1.2 1.5-1.2 1.5-4.1-.1-5.7-2.8-5.7-2.8 0-5.9 2.7-10.9 2.7-10.9 2.7-2 5.2-2 5.2-2l.2.2c-3.3 1-4.9 2.5-4.9 2.5s.4-.2 1.1-.5c2-.9 3.6-1.1 4.2-1.1h.4c1.1-.1 2.5-.2 3.7 0 1.7.2 3.7.7 5.6 1.7 0 0-1.5-1.4-4.6-2.3l.2-.2s2.6 0 5.2 2c0 0 2.7 4.8 2.7 10.9 0-.3-1.6 2.4-5.7 2.5z" />
</svg>