<svg version="1.1" xmlns="http://www.w3.org/2000/svg" x="0" y="0" viewBox="0 0 46 46" xml:space="preserve">
	<style>.st1 {fill: none}</style>
	<g id="Google-Button">
		<g id="btn_google_light_normal" transform="translate(-1 -1)">
			<g id="button" transform="translate(4 4)">
				<g id="button-bg">
					<path id="path-2" d="M2 0h36c1.1 0 2 .9 2 2v36c0 1.1-.9 2-2 2H2c-1.1 0-2-.9-2-2V2C0 .9.9 0 2 0z"
						fill-rule="evenodd" clip-rule="evenodd" fill="#fff" />
					<path class="st1" d="M2 0h36c1.1 0 2 .9 2 2v36c0 1.1-.9 2-2 2H2c-1.1 0-2-.9-2-2V2C0 .9.9 0 2 0z" />
					<path class="st1" d="M2 0h36c1.1 0 2 .9 2 2v36c0 1.1-.9 2-2 2H2c-1.1 0-2-.9-2-2V2C0 .9.9 0 2 0z" />
					<path class="st1" d="M2 0h36c1.1 0 2 .9 2 2v36c0 1.1-.9 2-2 2H2c-1.1 0-2-.9-2-2V2C0 .9.9 0 2 0z" />
				</g>
			</g>
			<g id="logo_googleg_48dp" transform="translate(15 15)">
				<path id="Shape"
					d="M21.6 9.3c0-.9-.1-1.8-.2-2.7H9v5.1h7.1c-.3 1.6-1.2 3-2.6 4V19h4.3c2.4-2.3 3.8-5.7 3.8-9.7z"
					fill-rule="evenodd" clip-rule="evenodd" fill="#4285f4" />
				<path
					d="M9 22.2c3.6 0 6.5-1.2 8.7-3.2l-4.3-3.3c-1.2.8-2.7 1.3-4.5 1.3-3.4 0-6.3-2.3-7.4-5.4h-4.4V15c2.3 4.2 6.8 7.2 11.9 7.2z"
					fill-rule="evenodd" clip-rule="evenodd" fill="#34a853" />
				<path
					d="M1.6 11.5c-.2-.8-.4-1.6-.4-2.5s.1-1.7.4-2.5V3.1h-4.4C-3.7 4.9-4.2 6.9-4.2 9s.5 4.1 1.4 5.9l4.4-3.4z"
					fill-rule="evenodd" clip-rule="evenodd" fill="#fbbc05" />
				<path
					d="M9 1.1c1.9 0 3.7.7 5 2l3.8-3.8C15.5-2.9 12.5-4.2 9-4.2c-5.1 0-9.6 3-11.8 7.3l4.4 3.4c1.1-3.1 4-5.4 7.4-5.4z"
					fill-rule="evenodd" clip-rule="evenodd" fill="#ea4335" />
				<path class="st1" d="M-4.2-4.2h26.3v26.3H-4.2V-4.2z" />
			</g>
		</g>
	</g>
</svg>