<svg xmlns="http://www.w3.org/2000/svg" viewBox="0 0 40.23 45.98">
    <defs>
        <style>
            .cls-1{fill:#7486c2;}
            .cls-2{fill:#519a60;}
            .cls-3{fill:#c5dfc6;}
            .cls-4{fill:#4d7753;}
            .cls-5{fill:#e6f1e6;}
            .cls-6{fill:#fff;stroke:#201600;stroke-miterlimit:10;stroke-width:0.1px;}

            @keyframes circle {
                from { clip-path: circle(75%); }
                to { clip-path: circle(0%); }
            }

            #discord, #mask-circle {
                animation: 6s ease-out infinite alternate circle;
            }

            #gsheets {
                mask: url(#mask)
            }
        </style>
        <mask id="mask" x="0" y="0" width="100%" height="100%">
            <rect x="0" y="0" width="100%" height="100%" fill="white" />
            <circle id="mask-circle" cx="50%" cy="50%" r="70%" fill="black" />
        </mask>
    </defs>
    <title>logo</title>
    <g id="discord">
        <path class="cls-1" d="M19.84,20.3a2.56,2.56,0,0,0,0,5.1,2.45,2.45,0,0,0,2.34-2.55A2.43,2.43,0,0,0,19.84,20.3Zm8.39,0a2.56,2.56,0,1,0,2.34,2.55A2.45,2.45,0,0,0,28.23,20.3Z" transform="translate(-3.88 -1.01)"/>
        <path class="cls-1" d="M39.4,1H8.6A4.73,4.73,0,0,0,3.88,5.75V36.83A4.72,4.72,0,0,0,8.6,41.56H34.67l-1.22-4.25,2.94,2.74,2.78,2.57L44.12,47V5.75A4.73,4.73,0,0,0,39.4,1ZM30.53,31s-.83-1-1.52-1.86a7.26,7.26,0,0,0,4.16-2.73,13.23,13.23,0,0,1-2.64,1.35,14.55,14.55,0,0,1-3.33,1,16,16,0,0,1-6,0,18.82,18.82,0,0,1-3.38-1A14.52,14.52,0,0,1,16.18,27l-.2-.12a.26.26,0,0,1-.1-.07c-.41-.23-.64-.39-.64-.39a7.16,7.16,0,0,0,4,2.72c-.69.87-1.54,1.9-1.54,1.9-5.08-.16-7-3.49-7-3.49A30.78,30.78,0,0,1,14,14.14a11.34,11.34,0,0,1,6.46-2.42l.23.28a15.51,15.51,0,0,0-6,3s.5-.27,1.35-.67a17.25,17.25,0,0,1,5.22-1.44,1.74,1.74,0,0,1,.39-.05,19.9,19.9,0,0,1,4.65,0A19,19,0,0,1,33.2,15a15.42,15.42,0,0,0-5.73-2.92l.32-.37a11.34,11.34,0,0,1,6.46,2.42,30.78,30.78,0,0,1,3.31,13.4S35.61,30.87,30.53,31Z" transform="translate(-3.88 -1.01)"/>
    </g>
    <g id="gsheets">
        <path class="cls-2" d="M36.55,41.56H11.45a2.89,2.89,0,0,1-2.9-2.89V3.91A2.9,2.9,0,0,1,11.45,1H29.79l9.66,9.66v28A2.89,2.89,0,0,1,36.55,41.56Z" transform="translate(-3.88 -1.01)"/>
        <path class="cls-3" d="M39.45,10.67H29.79V1Z" transform="translate(-3.88 -1.01)"/>
        <path class="cls-4" d="M29.79,10.67l9.66,9.65V10.67Z" transform="translate(-3.88 -1.01)"/>
        <path class="cls-5" d="M30.76,20.32H15.31V33.84H32.69V20.32ZM17.24,22.25H21.1v1.93H17.24Zm0,3.86H21.1v1.94H17.24Zm0,3.87H21.1v1.93H17.24Zm13.52,1.93H23V30h7.73Zm0-3.86H23V26.11h7.73Zm0-3.87H23V22.25h7.73Z" transform="translate(-3.88 -1.01)"/>
    </g>
    <g id="text">
        <path class="cls-6" d="M13.52,25.92a4.89,4.89,0,0,1-5-5A4.8,4.8,0,0,1,10,17.37a4.93,4.93,0,0,1,3.62-1.44,4.71,4.71,0,0,1,4,2l-2,1.51a2.66,2.66,0,0,0-2.12-1.11A2.07,2.07,0,0,0,12,19.1a2.94,2.94,0,0,0,0,3.66,2.09,2.09,0,0,0,1.65.73,2.37,2.37,0,0,0,1.2-.29,4,4,0,0,0,1-.87l2,1.42A5.65,5.65,0,0,1,16,25.35,5,5,0,0,1,13.52,25.92Z" transform="translate(-3.88 -1.01)"/>
        <path class="cls-6" d="M18.92,25.73V16.12h2.81L24,19.84l2.3-3.72h2.81v9.61H26.48V20.21L24,24H24l-2.44-3.73v5.49Z" transform="translate(-3.88 -1.01)"/>
        <path class="cls-6" d="M34.61,25.9a6.52,6.52,0,0,1-4.5-1.6l1.48-1.77a4.89,4.89,0,0,0,3.12,1.16c.73,0,1.1-.23,1.1-.69a.58.58,0,0,0-.33-.5,4.52,4.52,0,0,0-1.29-.42,13.12,13.12,0,0,1-1.45-.41,5.63,5.63,0,0,1-1.11-.53,2.15,2.15,0,0,1-.81-.86A2.81,2.81,0,0,1,30.56,19a2.78,2.78,0,0,1,1-2.22A4.06,4.06,0,0,1,34.28,16a6.15,6.15,0,0,1,4,1.28l-1.33,1.88a4.69,4.69,0,0,0-2.7-.95,1.18,1.18,0,0,0-.71.18.55.55,0,0,0-.25.47.58.58,0,0,0,.34.52,5,5,0,0,0,1.32.41,7.06,7.06,0,0,1,2.7,1.07,2.28,2.28,0,0,1,.89,2,2.76,2.76,0,0,1-1.06,2.3A4.42,4.42,0,0,1,34.61,25.9Z" transform="translate(-3.88 -1.01)"/>
    </g>
</svg>